<svg width="30" height="30" viewBox="0 0 30 30" fill="none" xmlns="http://www.w3.org/2000/svg">
<rect width="30" height="30" rx="2.8125" fill="#D5E0FF"/>
<path opacity="0.5" d="M6 14.1C6 13.8613 6.09482 13.6323 6.2636 13.4636C6.43239 13.2948 6.66131 13.2 6.9 13.2H23.1C23.3387 13.2 23.5676 13.2948 23.7364 13.4636C23.9052 13.6323 24 13.8613 24 14.1V15.9C24 16.1386 23.9052 16.3676 23.7364 16.5363C23.5676 16.7051 23.3387 16.8 23.1 16.8H6.9C6.66131 16.8 6.43239 16.7051 6.2636 16.5363C6.09482 16.3676 6 16.1386 6 15.9V14.1Z" fill="#0135C1"/>
<path opacity="0.3" d="M6 20.4C6 20.1613 6.09482 19.9324 6.2636 19.7636C6.43239 19.5948 6.66131 19.5 6.9 19.5H23.1C23.3387 19.5 23.5676 19.5948 23.7364 19.7636C23.9052 19.9324 24 20.1613 24 20.4V22.2C24 22.4387 23.9052 22.6676 23.7364 22.8364C23.5676 23.0052 23.3387 23.1 23.1 23.1H6.9C6.66131 23.1 6.43239 23.0052 6.2636 22.8364C6.09482 22.6676 6 22.4387 6 22.2V20.4Z" fill="#0135C1"/>
<path d="M6 7.80002C6 7.56133 6.09482 7.33241 6.2636 7.16363C6.43239 6.99485 6.66131 6.90002 6.9 6.90002H23.1C23.3387 6.90002 23.5676 6.99485 23.7364 7.16363C23.9052 7.33241 24 7.56133 24 7.80002V9.60002C24 9.83872 23.9052 10.0676 23.7364 10.2364C23.5676 10.4052 23.3387 10.5 23.1 10.5H6.9C6.66131 10.5 6.43239 10.4052 6.2636 10.2364C6.09482 10.0676 6 9.83872 6 9.60002V7.80002Z" fill="#0135C1"/>
</svg>
