<svg width="196" height="37" viewBox="0 0 196 37" fill="none" xmlns="http://www.w3.org/2000/svg">
<g clip-path="url(#clip0_8_11)">
<path d="M29.863 27.7823C29.955 28.218 30.005 28.6685 30.005 29.131C30.005 29.5931 29.955 30.044 29.8634 30.4794H42.7936C42.7002 30.0444 42.6486 29.594 42.6486 29.131C42.6486 28.6681 42.7002 28.2176 42.7936 27.7823H29.863Z" fill="#0035C1"/>
<path d="M49.0825 24.0542C46.2787 24.0542 43.9973 26.3315 43.9973 29.1314C43.9973 31.931 46.2787 34.2086 49.0825 34.2086C51.8863 34.2086 54.1672 31.9314 54.1672 29.1314C54.1672 26.3315 51.8863 24.0542 49.0825 24.0542ZM49.0825 30.3556C48.403 30.3556 47.8498 29.8062 47.8498 29.131C47.8498 28.4563 48.403 27.9069 49.0825 27.9069C49.7615 27.9069 50.3147 28.4563 50.3147 29.131C50.3143 29.8062 49.7615 30.3556 49.0825 30.3556Z" fill="#0035C1"/>
<path d="M23.4588 24.0542C20.655 24.0542 18.3738 26.3315 18.3738 29.1314C18.3738 31.931 20.655 34.2086 23.4588 34.2086C26.2626 34.2086 28.5438 31.9314 28.5438 29.1314C28.5438 26.3315 26.2626 24.0542 23.4588 24.0542ZM23.4588 30.3556C22.7794 30.3556 22.2265 29.8062 22.2265 29.131C22.2265 28.4563 22.7794 27.9069 23.4588 27.9069C24.1383 27.9069 24.6912 28.4563 24.6912 29.131C24.6912 29.8062 24.1383 30.3556 23.4588 30.3556Z" fill="#0035C1"/>
<path d="M56.8541 9.22146H44.4668V3.69065C44.4668 2.83701 43.7745 2.14478 42.9209 2.14478H14.3008C13.4471 2.14478 12.7549 2.83701 12.7549 3.69065V9.41895H17.5221V5.93067L25.5099 12.272L17.5221 18.6131V15.1248H12.7549H7.98773V11.6365L0 17.9779L7.98773 24.3189V20.8306H12.7549V23.719V29.1299C12.7549 29.876 13.3579 30.4786 14.1037 30.4786H17.0565C17.0488 30.436 17.041 30.3975 17.0332 30.3587C16.956 29.9645 16.9133 29.5509 16.9133 29.1295C16.9133 28.7042 16.956 28.2832 17.0371 27.8774C17.0449 27.8425 17.0526 27.8118 17.0565 27.7807H15.4524V26.4436H17.5008C17.5629 26.3044 17.6284 26.1693 17.7018 26.0378C17.8372 25.7867 17.9878 25.543 18.1577 25.311C18.1732 25.28 18.1965 25.2528 18.2194 25.2221C18.2966 25.1217 18.3738 25.025 18.4514 24.9284C18.4592 24.9207 18.467 24.9129 18.4747 24.9051C18.5674 24.7969 18.6602 24.6886 18.7607 24.5881C18.8573 24.4876 18.9578 24.3872 19.0622 24.2944C19.0699 24.2866 19.0777 24.2789 19.0855 24.275C19.1859 24.1823 19.2903 24.0934 19.4025 24.0084C19.4257 23.989 19.4448 23.9739 19.4641 23.9584C19.5608 23.8812 19.6574 23.8113 19.7618 23.7419C19.7695 23.7341 19.7811 23.7263 19.7928 23.7186C20.84 23.0112 22.1003 22.5941 23.4607 22.5941C24.8172 22.5941 26.081 23.0116 27.1287 23.7186C27.2408 23.7958 27.3491 23.873 27.4535 23.9584C27.4767 23.9739 27.4961 23.9894 27.5155 24.0084C27.6238 24.0934 27.732 24.1823 27.8326 24.275C27.8403 24.2789 27.8481 24.2866 27.8558 24.2944C27.9602 24.3872 28.0607 24.4876 28.1573 24.5881C28.2578 24.6886 28.3544 24.7969 28.4433 24.9051C28.4549 24.9129 28.4627 24.9207 28.4666 24.9284C28.5632 25.0406 28.652 25.1527 28.737 25.2726C28.8297 25.3925 28.9147 25.5202 28.9919 25.6474C29.0769 25.7751 29.1502 25.9023 29.2201 26.0378C29.2896 26.1693 29.3594 26.3044 29.4211 26.4436H29.4249H43.1185C43.13 26.4397 43.1377 26.432 43.1496 26.4242C43.1496 26.4204 43.1535 26.4204 43.1535 26.4165C43.2034 26.3044 43.2657 26.1961 43.3234 26.0878C43.5517 25.6552 43.8219 25.2532 44.1352 24.8857C44.2432 24.7581 44.3516 24.6382 44.4672 24.5225V24.5032V11.9189H55.5057V13.7469H49.5883C49.1632 13.7469 48.8153 14.095 48.8153 14.5198V19.301C48.8153 19.7262 49.1632 20.0739 49.5883 20.0739H55.5057V27.8851V30.3781V30.4786H56.8545C57.5967 30.4786 58.2033 29.8757 58.2033 29.1299V10.5702C58.2028 9.82832 57.5959 9.22146 56.8541 9.22146Z" fill="#0035C1"/>
</g>
<path d="M66.5578 24.8132V11.9469H75.0767V14.1897H69.2781V17.2555H74.5113V19.4983H69.2781V24.8132H66.5578ZM76.9065 24.8132V11.9469H81.9826C82.9543 11.9469 83.7836 12.1207 84.4705 12.4683C85.1615 12.8118 85.6872 13.2997 86.0473 13.9321C86.4117 14.5604 86.5939 15.2996 86.5939 16.1498C86.5939 17.0042 86.4096 17.7393 86.0411 18.3549C85.6725 18.9664 85.1385 19.4355 84.4391 19.7622C83.7438 20.0889 82.902 20.2522 81.9135 20.2522H78.5148V18.066H81.4738C81.9931 18.066 82.4245 17.9948 82.7679 17.8523C83.1114 17.7099 83.3669 17.4963 83.5344 17.2115C83.7061 16.9267 83.792 16.5728 83.792 16.1498C83.792 15.7226 83.7061 15.3624 83.5344 15.0692C83.3669 14.7761 83.1093 14.5541 82.7617 14.4033C82.4182 14.2483 81.9847 14.1709 81.4612 14.1709H79.6267V24.8132H76.9065ZM83.8548 18.9581L87.0525 24.8132H84.0495L80.9209 18.9581H83.8548ZM88.5163 24.8132V11.9469H97.186V14.1897H91.2366V17.2555H96.74V19.4983H91.2366V22.5704H97.2112V24.8132H88.5163ZM102.069 11.9469V24.8132H99.3488V11.9469H102.069ZM112.839 16.1058C112.751 15.8001 112.627 15.53 112.468 15.2954C112.309 15.0567 112.114 14.8556 111.884 14.6923C111.658 14.5248 111.398 14.397 111.105 14.3091C110.816 14.2211 110.495 14.1771 110.143 14.1771C109.486 14.1771 108.908 14.3405 108.41 14.6672C107.915 14.9939 107.53 15.4692 107.254 16.0933C106.977 16.7131 106.839 17.4712 106.839 18.3675C106.839 19.2638 106.975 20.0261 107.247 20.6543C107.52 21.2825 107.905 21.7621 108.403 22.093C108.902 22.4197 109.49 22.583 110.169 22.583C110.784 22.583 111.31 22.4741 111.746 22.2563C112.185 22.0343 112.52 21.7223 112.751 21.3202C112.985 20.9182 113.102 20.4428 113.102 19.8941L113.655 19.9758H110.338V17.9277H115.722V19.5486C115.722 20.6794 115.484 21.6511 115.006 22.4636C114.529 23.272 113.871 23.896 113.033 24.3358C112.196 24.7714 111.237 24.9892 110.156 24.9892C108.95 24.9892 107.89 24.7232 106.977 24.1913C106.064 23.6552 105.352 22.895 104.841 21.9108C104.334 20.9223 104.081 19.7496 104.081 18.3926C104.081 17.3498 104.232 16.42 104.533 15.6032C104.839 14.7823 105.266 14.0871 105.815 13.5175C106.364 12.9479 107.002 12.5144 107.731 12.217C108.46 11.9197 109.249 11.771 110.1 11.771C110.828 11.771 111.507 11.8778 112.135 12.0914C112.763 12.3008 113.32 12.5982 113.806 12.9835C114.296 13.3688 114.696 13.8274 115.006 14.3593C115.316 14.8871 115.515 15.4692 115.603 16.1058H112.839ZM117.766 24.8132V11.9469H120.486V17.2555H126.008V11.9469H128.722V24.8132H126.008V19.4983H120.486V24.8132H117.766ZM130.475 14.1897V11.9469H141.042V14.1897H137.103V24.8132H134.414V14.1897H130.475ZM146.877 24.8132V11.9469H149.597V17.2555H155.119V11.9469H157.833V24.8132H155.119V19.4983H149.597V24.8132H146.877ZM160.076 24.8132V11.9469H168.746V14.1897H162.796V17.2555H168.3V19.4983H162.796V22.5704H168.771V24.8132H160.076ZM170.908 24.8132V11.9469H175.985C176.956 11.9469 177.786 12.1207 178.472 12.4683C179.164 12.8118 179.689 13.2997 180.049 13.9321C180.414 14.5604 180.596 15.2996 180.596 16.1498C180.596 17.0042 180.412 17.7393 180.043 18.3549C179.674 18.9664 179.14 19.4355 178.441 19.7622C177.746 20.0889 176.904 20.2522 175.916 20.2522H172.517V18.066H175.476C175.995 18.066 176.426 17.9948 176.77 17.8523C177.113 17.7099 177.369 17.4963 177.536 17.2115C177.708 16.9267 177.794 16.5728 177.794 16.1498C177.794 15.7226 177.708 15.3624 177.536 15.0692C177.369 14.7761 177.111 14.5541 176.764 14.4033C176.42 14.2483 175.987 14.1709 175.463 14.1709H173.629V24.8132H170.908ZM177.857 18.9581L181.055 24.8132H178.052L174.923 18.9581H177.857ZM194.342 18.3801C194.342 19.7831 194.076 20.9768 193.544 21.961C193.016 22.9453 192.296 23.6971 191.383 24.2164C190.474 24.7316 189.452 24.9892 188.317 24.9892C187.174 24.9892 186.147 24.7295 185.239 24.2101C184.33 23.6908 183.611 22.939 183.084 21.9548C182.556 20.9705 182.292 19.779 182.292 18.3801C182.292 16.977 182.556 15.7833 183.084 14.7991C183.611 13.8149 184.33 13.0652 185.239 12.55C186.147 12.0307 187.174 11.771 188.317 11.771C189.452 11.771 190.474 12.0307 191.383 12.55C192.296 13.0652 193.016 13.8149 193.544 14.7991C194.076 15.7833 194.342 16.977 194.342 18.3801ZM191.584 18.3801C191.584 17.4712 191.448 16.7048 191.175 16.0807C190.907 15.4567 190.528 14.9834 190.038 14.6609C189.548 14.3384 188.975 14.1771 188.317 14.1771C187.659 14.1771 187.086 14.3384 186.596 14.6609C186.106 14.9834 185.724 15.4567 185.452 16.0807C185.184 16.7048 185.05 17.4712 185.05 18.3801C185.05 19.2889 185.184 20.0554 185.452 20.6794C185.724 21.3035 186.106 21.7768 186.596 22.0993C187.086 22.4217 187.659 22.583 188.317 22.583C188.975 22.583 189.548 22.4217 190.038 22.0993C190.528 21.7768 190.907 21.3035 191.175 20.6794C191.448 20.0554 191.584 19.2889 191.584 18.3801Z" fill="#0035C1"/>
<defs>
<clipPath id="clip0_8_11">
<rect width="58.2186" height="36.3866" fill="white"/>
</clipPath>
</defs>
</svg>
