<svg width="30" height="30" viewBox="0 0 30 30" fill="none" xmlns="http://www.w3.org/2000/svg">
<rect width="30" height="30" rx="2.8125" fill="#D5E0FF"/>
<path opacity="0.5" d="M20.8335 20.8335C21.126 21.126 21.6037 21.1282 21.8715 20.8125C23.2486 19.1892 24.0032 17.1288 24 15C24 10.0297 19.9702 6 15 6C10.0297 6 6 10.0297 6 15C6 17.2155 6.80025 19.2442 8.1285 20.8125C8.39625 21.1282 8.87325 21.1267 9.1665 20.8335C9.459 20.541 9.456 20.0685 9.1935 19.7475C8.09596 18.409 7.49735 16.7309 7.5 15C7.5 10.8577 10.8577 7.5 15 7.5C19.1422 7.5 22.5 10.8577 22.5 15C22.5026 16.7309 21.904 18.409 20.8065 19.7475C20.544 20.0677 20.541 20.541 20.8335 20.8335Z" fill="#0135C1"/>
<path d="M10.5 22.7962V22.5C10.5 21.3065 10.9741 20.1619 11.818 19.318C12.6619 18.4741 13.8065 18 15 18C16.1935 18 17.3381 18.4741 18.182 19.318C19.0259 20.1619 19.5 21.3065 19.5 22.5V22.7962C18.1324 23.5873 16.5799 24.0025 15 24C13.3605 24 11.8237 23.562 10.5 22.7962ZM17.25 13.875C17.25 12.4252 16.875 11.25 15 11.25C13.125 11.25 12.75 12.4252 12.75 13.875C12.75 15.3247 13.7572 16.5 15 16.5C16.2427 16.5 17.25 15.3247 17.25 13.875Z" fill="#0135C1"/>
</svg>
